<svg xmlns="http://www.w3.org/2000/svg" width="1080" height="420" viewBox="0 0 1080 420" role="img" aria-labelledby="title desc">
  <title id="title">Detected breakpoints example</title>
  <desc id="desc">Noisy step signal with detected breakpoints.</desc>
  <rect x="0" y="0" width="1080" height="420" fill="#ffffff"/>
  <line x1="70" y1="294.00" x2="1050" y2="294.00" stroke="#e5e7eb" stroke-width="1"/>
  <line x1="70" y1="195.00" x2="1050" y2="195.00" stroke="#e5e7eb" stroke-width="1"/>
  <line x1="70" y1="96.00" x2="1050" y2="96.00" stroke="#e5e7eb" stroke-width="1"/>
  <line x1="70" y1="360" x2="1050" y2="360" stroke="#222222" stroke-width="2"/>
  <line x1="70" y1="30" x2="70" y2="360" stroke="#222222" stroke-width="2"/>
  <polyline points="70.00,232.08 78.24,227.64 86.47,236.20 94.71,245.41 102.94,238.90 111.18,246.92 119.41,231.20 127.65,212.07 135.88,239.46 144.12,241.37 152.35,224.78 160.59,226.77 168.82,230.53 177.06,246.01 185.29,232.54 193.53,221.71 201.76,252.19 210.00,238.94 218.24,260.51 226.47,251.37 234.71,259.62 242.94,235.61 251.18,251.04 259.41,228.05 267.65,229.76 275.88,234.89 284.12,269.71 292.35,240.15 300.59,232.83 308.82,230.41 317.06,254.97 325.29,239.24 333.53,246.72 341.76,244.19 350.00,216.25 358.24,244.17 366.47,232.59 374.71,218.88 382.94,240.82 391.18,233.77 399.41,81.00 407.65,81.70 415.88,100.96 424.12,81.52 432.35,62.35 440.59,105.78 448.82,69.81 457.06,80.87 465.29,92.24 473.53,52.76 481.76,71.26 490.00,100.58 498.24,81.54 506.47,74.04 514.71,85.48 522.94,72.45 531.18,83.65 539.41,72.68 547.65,61.16 555.88,92.75 564.12,79.62 572.35,89.58 580.59,80.75 588.82,100.40 597.06,91.31 605.29,85.59 613.53,69.22 621.76,65.54 630.00,102.43 638.24,94.53 646.47,72.99 654.71,112.43 662.94,89.58 671.18,84.11 679.41,63.87 687.65,72.35 695.88,87.54 704.12,88.16 712.35,86.39 720.59,59.89 728.82,313.22 737.06,311.36 745.29,301.55 753.53,308.63 761.76,309.77 770.00,323.47 778.24,307.00 786.47,313.45 794.71,289.40 802.94,297.06 811.18,307.18 819.41,296.84 827.65,311.90 835.88,291.10 844.12,306.90 852.35,298.11 860.59,326.12 868.82,301.64 877.06,332.05 885.29,337.24 893.53,311.37 901.76,320.27 910.00,304.37 918.24,273.28 926.47,319.25 934.71,316.15 942.94,303.75 951.18,299.46 959.41,309.46 967.65,309.90 975.88,296.33 984.12,299.05 992.35,322.27 1000.59,308.01 1008.82,306.30 1017.06,322.58 1025.29,302.94 1033.53,319.65 1041.76,292.30 1050.00,303.94" fill="none" stroke="#0f172a" stroke-width="2.2" stroke-linejoin="round" stroke-linecap="round"/>
  <line x1="391.18" y1="30" x2="391.18" y2="360" stroke="#dc2626" stroke-width="2" stroke-dasharray="7 6"/>
  <text x="397.18" y="22" font-family="Arial, Helvetica, sans-serif" font-size="14" fill="#b91c1c">bkpt = 40</text>
  <line x1="720.59" y1="30" x2="720.59" y2="360" stroke="#dc2626" stroke-width="2" stroke-dasharray="7 6"/>
  <text x="726.59" y="22" font-family="Arial, Helvetica, sans-serif" font-size="14" fill="#b91c1c">bkpt = 80</text>
  <line x1="1050.00" y1="30" x2="1050.00" y2="360" stroke="#9ca3af" stroke-width="1.5" stroke-dasharray="4 6"/>
  <text x="62.00" y="388" font-family="Arial, Helvetica, sans-serif" font-size="13" fill="#374151">0</text>
  <text x="391.41" y="388" font-family="Arial, Helvetica, sans-serif" font-size="13" fill="#374151">40</text>
  <text x="720.82" y="388" font-family="Arial, Helvetica, sans-serif" font-size="13" fill="#374151">80</text>
  <text x="1042.00" y="388" font-family="Arial, Helvetica, sans-serif" font-size="13" fill="#374151">120</text>
  <text x="30" y="310.82" font-family="Arial, Helvetica, sans-serif" font-size="13" fill="#374151">-3</text>
  <text x="30" y="236.10" font-family="Arial, Helvetica, sans-serif" font-size="13" fill="#374151">0</text>
  <text x="30" y="86.65" font-family="Arial, Helvetica, sans-serif" font-size="13" fill="#374151">6</text>
  <text x="515.00" y="410" font-family="Arial, Helvetica, sans-serif" font-size="15" fill="#111827">Sample Index</text>
  <text x="18" y="205" transform="rotate(-90 18 205)" font-family="Arial, Helvetica, sans-serif" font-size="15" fill="#111827">Signal</text>
  <rect x="760" y="46" width="265" height="44" fill="#ffffff" stroke="#d1d5db" stroke-width="1"/>
  <line x1="775" y1="69" x2="825" y2="69" stroke="#0f172a" stroke-width="2.2"/>
  <text x="835" y="74" font-family="Arial, Helvetica, sans-serif" font-size="13" fill="#111827">noisy signal</text>
  <line x1="925" y1="69" x2="975" y2="69" stroke="#dc2626" stroke-width="2" stroke-dasharray="7 6"/>
  <text x="985" y="74" font-family="Arial, Helvetica, sans-serif" font-size="13" fill="#111827">breakpoint</text>
</svg>