<svg xmlns="http://www.w3.org/2000/svg" width="1080" height="520" viewBox="0 0 1080 520" role="img" aria-labelledby="title desc">
  <title id="title">BOCPD online detection example</title>
  <desc id="desc">Streaming signal with one change and BOCPD alert probability trajectory.</desc>
  <rect x="0" y="0" width="1080" height="520" fill="#ffffff"/>
  <line x1="70" y1="280" x2="1050" y2="280" stroke="#222" stroke-width="1.8"/>
  <line x1="70" y1="34" x2="70" y2="280" stroke="#222" stroke-width="1.8"/>
  <line x1="70" y1="470" x2="1050" y2="470" stroke="#222" stroke-width="1.8"/>
  <line x1="70" y1="330" x2="70" y2="470" stroke="#222" stroke-width="1.8"/>
  <line x1="70" y1="95.50" x2="1050" y2="95.50" stroke="#e5e7eb" stroke-width="1"/>
  <line x1="70" y1="157.00" x2="1050" y2="157.00" stroke="#e5e7eb" stroke-width="1"/>
  <line x1="70" y1="218.50" x2="1050" y2="218.50" stroke="#e5e7eb" stroke-width="1"/>
  <line x1="70" y1="365.00" x2="1050" y2="365.00" stroke="#e5e7eb" stroke-width="1"/>
  <line x1="70" y1="400.00" x2="1050" y2="400.00" stroke="#e5e7eb" stroke-width="1"/>
  <line x1="70" y1="435.00" x2="1050" y2="435.00" stroke="#e5e7eb" stroke-width="1"/>
  <polyline points="70.00,218.46 74.10,190.63 78.20,193.47 82.30,229.90 86.40,225.44 90.50,230.25 94.60,207.22 98.70,220.36 102.80,203.50 106.90,257.97 111.00,186.29 115.10,221.21 119.21,204.90 123.31,222.05 127.41,227.14 131.51,209.46 135.61,201.87 139.71,223.43 143.81,222.39 147.91,204.79 152.01,237.45 156.11,250.98 160.21,210.89 164.31,233.26 168.41,259.50 172.51,236.27 176.61,229.00 180.71,244.23 184.81,250.52 188.91,218.41 193.01,200.34 197.11,224.08 201.21,234.79 205.31,211.10 209.41,204.12 213.51,225.48 217.62,207.75 221.72,197.29 225.82,223.53 229.92,236.26 234.02,211.88 238.12,213.98 242.22,196.11 246.32,246.15 250.42,233.07 254.52,236.78 258.62,255.59 262.72,216.53 266.82,208.10 270.92,234.69 275.02,190.09 279.12,201.93 283.22,206.01 287.32,210.75 291.42,199.12 295.52,247.15 299.62,206.29 303.72,206.53 307.82,256.30 311.92,211.90 316.03,224.44 320.13,202.77 324.23,228.40 328.33,219.56 332.43,211.98 336.53,237.58 340.63,206.61 344.73,221.39 348.83,208.84 352.93,230.14 357.03,196.38 361.13,206.48 365.23,222.92 369.33,205.91 373.43,192.73 377.53,181.58 381.63,252.22 385.73,200.64 389.83,209.42 393.93,221.15 398.03,240.32 402.13,192.79 406.23,245.67 410.33,207.28 414.44,191.85 418.54,252.77 422.64,225.53 426.74,246.67 430.84,214.06 434.94,187.39 439.04,176.70 443.14,256.51 447.24,231.25 451.34,204.41 455.44,186.02 459.54,210.34 463.64,234.85 467.74,212.94 471.84,219.53 475.94,223.46 480.04,234.60 484.14,211.05 488.24,212.72 492.34,221.13 496.44,223.84 500.54,246.16 504.64,229.39 508.74,193.85 512.85,223.18 516.95,249.41 521.05,191.16 525.15,208.05 529.25,174.92 533.35,217.87 537.45,228.87 541.55,249.58 545.65,191.39 549.75,165.23 553.85,236.42 557.95,232.77 562.05,86.69 566.15,116.64 570.25,104.89 574.35,106.55 578.45,95.18 582.55,76.22 586.65,98.75 590.75,79.92 594.85,108.02 598.95,92.33 603.05,144.10 607.15,129.65 611.26,82.50 615.36,111.60 619.46,87.03 623.56,87.82 627.66,71.45 631.76,82.16 635.86,77.86 639.96,101.55 644.06,113.87 648.16,114.57 652.26,109.46 656.36,122.93 660.46,110.70 664.56,101.15 668.66,93.93 672.76,106.32 676.86,139.60 680.96,100.73 685.06,94.48 689.16,76.44 693.26,87.08 697.36,112.72 701.46,114.40 705.56,57.00 709.67,83.32 713.77,60.76 717.87,54.50 721.97,116.38 726.07,91.12 730.17,89.59 734.27,87.46 738.37,87.83 742.47,94.97 746.57,95.55 750.67,130.75 754.77,102.68 758.87,114.90 762.97,96.56 767.07,109.02 771.17,86.22 775.27,82.01 779.37,92.73 783.47,92.57 787.57,97.26 791.67,108.61 795.77,102.66 799.87,109.61 803.97,91.06 808.08,98.91 812.18,87.00 816.28,127.10 820.38,80.57 824.48,115.22 828.58,114.62 832.68,103.35 836.78,111.04 840.88,93.10 844.98,111.26 849.08,121.66 853.18,116.97 857.28,71.66 861.38,98.28 865.48,123.72 869.58,99.03 873.68,131.88 877.78,61.64 881.88,131.22 885.98,89.16 890.08,87.79 894.18,129.65 898.28,92.90 902.38,78.27 906.49,89.39 910.59,93.73 914.69,79.28 918.79,95.83 922.89,92.15 926.99,101.87 931.09,85.94 935.19,118.97 939.29,82.59 943.39,109.82 947.49,122.11 951.59,91.54 955.69,63.66 959.79,79.02 963.89,110.03 967.99,84.55 972.09,108.74 976.19,101.81 980.29,97.33 984.39,147.86 988.49,95.19 992.59,120.83 996.69,113.85 1000.79,130.16 1004.90,131.05 1009.00,119.01 1013.10,81.87 1017.20,64.23 1021.30,99.74 1025.40,76.29 1029.50,104.75 1033.60,139.35 1037.70,96.06 1041.80,89.85 1045.90,108.21 1050.00,92.86" fill="none" stroke="#0f172a" stroke-width="2" stroke-linejoin="round" stroke-linecap="round"/>
  <polyline points="70.00,468.83 74.10,469.16 78.20,469.34 82.30,469.33 86.40,469.44 90.50,469.47 94.60,469.54 98.70,469.57 102.80,469.58 106.90,469.06 111.00,469.40 115.10,469.60 119.21,469.61 123.31,469.63 127.41,469.62 131.51,469.65 135.61,469.63 139.71,469.66 143.81,469.67 147.91,469.67 152.01,469.55 156.11,469.25 160.21,469.68 164.31,469.63 168.41,468.92 172.51,469.62 176.61,469.68 180.71,469.55 184.81,469.44 188.91,469.69 193.01,469.56 197.11,469.70 201.21,469.67 205.31,469.68 209.41,469.63 213.51,469.71 217.62,469.67 221.72,469.54 225.82,469.72 229.92,469.66 234.02,469.71 238.12,469.72 242.22,469.52 246.32,469.48 250.42,469.69 254.52,469.66 258.62,469.17 262.72,469.72 266.82,469.68 270.92,469.69 275.02,469.28 279.12,469.62 283.22,469.67 287.32,469.71 291.42,469.59 295.52,469.45 299.62,469.68 303.72,469.68 307.82,469.02 311.92,469.71 316.03,469.73 320.13,469.64 324.23,469.72 328.33,469.74 332.43,469.72 336.53,469.65 340.63,469.69 344.73,469.75 348.83,469.71 352.93,469.72 357.03,469.53 361.13,469.69 365.23,469.75 369.33,469.69 373.43,469.44 377.53,468.78 381.63,469.14 385.73,469.63 389.83,469.72 393.93,469.75 398.03,469.58 402.13,469.46 406.23,469.44 410.33,469.71 414.44,469.44 418.54,469.11 422.64,469.73 426.74,469.43 430.84,469.74 434.94,469.24 439.04,468.36 443.14,468.88 447.24,469.69 451.34,469.67 455.44,469.23 459.54,469.72 463.64,469.66 467.74,469.73 471.84,469.74 475.94,469.74 480.04,469.66 484.14,469.73 488.24,469.73 492.34,469.74 496.44,469.74 500.54,469.43 504.64,469.72 508.74,469.50 512.85,469.74 516.95,469.31 521.05,469.41 525.15,469.71 529.25,468.05 533.35,469.74 537.45,469.71 541.55,469.29 545.65,469.44 549.75,465.50 553.85,469.62 557.95,469.67 562.05,349.59 566.15,469.35 570.25,469.51 574.35,469.60 578.45,469.67 582.55,469.71 586.65,469.73 590.75,469.77 594.85,469.75 598.95,469.79 603.05,469.52 607.15,469.68 611.26,469.80 615.36,469.78 619.46,469.82 623.56,469.82 627.66,469.81 631.76,469.83 635.86,469.84 639.96,469.83 644.06,469.80 648.16,469.80 652.26,469.82 656.36,469.76 660.46,469.83 664.56,469.85 668.66,469.86 672.76,469.85 676.86,469.58 680.96,469.86 685.06,469.86 689.16,469.84 693.26,469.86 697.36,469.84 701.46,469.83 705.56,469.73 709.67,469.87 713.77,469.78 717.87,469.75 721.97,469.81 726.07,469.87 730.17,469.88 734.27,469.88 738.37,469.88 742.47,469.88 746.57,469.88 750.67,469.67 754.77,469.87 758.87,469.83 762.97,469.88 767.07,469.86 771.17,469.88 775.27,469.88 779.37,469.89 783.47,469.89 787.57,469.89 791.67,469.86 795.77,469.88 799.87,469.86 803.97,469.89 808.08,469.89 812.18,469.89 816.28,469.72 820.38,469.88 824.48,469.84 828.58,469.84 832.68,469.88 836.78,469.86 840.88,469.90 844.98,469.86 849.08,469.79 853.18,469.83 857.28,469.84 861.38,469.89 865.48,469.77 869.58,469.89 873.68,469.64 877.78,469.75 881.88,469.66 885.98,469.89 890.08,469.89 894.18,469.69 898.28,469.90 902.38,469.87 906.49,469.90 910.59,469.90 914.69,469.88 918.79,469.90 922.89,469.90 926.99,469.89 931.09,469.90 935.19,469.82 939.29,469.89 943.39,469.87 947.49,469.79 951.59,469.90 955.69,469.77 959.79,469.88 963.89,469.87 967.99,469.90 972.09,469.88 976.19,469.90 980.29,469.90 984.39,468.43 988.49,469.90 992.59,469.80 996.69,469.86 1000.79,469.66 1004.90,469.65 1009.00,469.83 1013.10,469.88 1017.20,469.77 1021.30,469.90 1025.40,469.87 1029.50,469.89 1033.60,469.33 1037.70,469.90 1041.80,469.90 1045.90,469.88 1050.00,469.90" fill="none" stroke="#2563eb" stroke-width="2" stroke-linejoin="round" stroke-linecap="round"/>
  <line x1="70" y1="388.33" x2="1050" y2="388.33" stroke="#2563eb" stroke-width="1.5" stroke-dasharray="6 5"/>
  <text x="890" y="382.33" font-family="Arial, Helvetica, sans-serif" font-size="12" fill="#1d4ed8">threshold = 0.35</text>
  <line x1="562.05" y1="34" x2="562.05" y2="470" stroke="#16a34a" stroke-width="2" stroke-dasharray="7 6"/>
  <text x="568.05" y="22" font-family="Arial, Helvetica, sans-serif" font-size="13" fill="#166534">true change = 120</text>
  <line x1="562.05" y1="34" x2="562.05" y2="470" stroke="#dc2626" stroke-width="2" stroke-dasharray="3 4"/>
  <circle cx="562.05" cy="349.59" r="4" fill="#dc2626"/>
  <text x="568.05" y="40" font-family="Arial, Helvetica, sans-serif" font-size="13" fill="#b91c1c">alert = 120</text>
  <text x="62.00" y="498" font-family="Arial, Helvetica, sans-serif" font-size="12" fill="#374151">0</text>
  <text x="308.03" y="498" font-family="Arial, Helvetica, sans-serif" font-size="12" fill="#374151">60</text>
  <text x="554.05" y="498" font-family="Arial, Helvetica, sans-serif" font-size="12" fill="#374151">120</text>
  <text x="800.08" y="498" font-family="Arial, Helvetica, sans-serif" font-size="12" fill="#374151">180</text>
  <text x="1042.00" y="498" font-family="Arial, Helvetica, sans-serif" font-size="12" fill="#374151">240</text>
  <text x="520.00" y="505" font-family="Arial, Helvetica, sans-serif" font-size="14" fill="#111827">time step</text>
  <text x="16" y="157.00" transform="rotate(-90 16 157.00)" font-family="Arial, Helvetica, sans-serif" font-size="14" fill="#111827">signal</text>
  <text x="16" y="400.00" transform="rotate(-90 16 400.00)" font-family="Arial, Helvetica, sans-serif" font-size="14" fill="#111827">p_change</text>
  <text x="70" y="24" font-family="Arial, Helvetica, sans-serif" font-size="14" fill="#111827">Streaming signal</text>
  <text x="70" y="320" font-family="Arial, Helvetica, sans-serif" font-size="14" fill="#111827">BOCPD change probability</text>
  <rect x="770" y="58" width="255" height="56" fill="#fff" stroke="#d1d5db" stroke-width="1"/>
  <line x1="784" y1="78" x2="832" y2="78" stroke="#0f172a" stroke-width="2"/>
  <text x="840" y="82" font-family="Arial, Helvetica, sans-serif" font-size="12" fill="#111827">stream value</text>
  <line x1="784" y1="98" x2="832" y2="98" stroke="#2563eb" stroke-width="2"/>
  <text x="840" y="102" font-family="Arial, Helvetica, sans-serif" font-size="12" fill="#111827">p_change</text>
</svg>